<?xml version="1.0" encoding="iso-8859-1"?>
<!-- Generator: Adobe Illustrator 19.0.0, SVG Export Plug-In . SVG Version: 6.00 Build 0)  -->
<svg version="1.1" id="Capa_1" xmlns="http://www.w3.org/2000/svg" xmlns:xlink="http://www.w3.org/1999/xlink" x="0px" y="0px"
	 viewBox="0 0 511.999 511.999" style="enable-background:new 0 0 511.999 511.999;" xml:space="preserve">
<path style="fill:#F3C74F;" d="M400.217,310.101c-7.51,0-14.847-3.771-19.092-10.626c-12.101-19.542-35.362-35.882-46.539-43.735
	c-10.136-7.121-12.582-21.112-5.46-31.249c7.12-10.136,21.111-12.583,31.249-5.46c13.619,9.567,41.956,29.474,58.892,56.826
	c6.522,10.533,3.271,24.358-7.261,30.879C408.328,309.015,404.248,310.101,400.217,310.101z"/>
<circle style="fill:#0081C6;" cx="343.804" cy="84.34" r="51.517"/>
<circle style="fill:#F3C74F;" cx="343.804" cy="84.34" r="24.053"/>
<circle style="fill:#0081C6;" cx="95.292" cy="84.34" r="51.517"/>
<circle style="fill:#F3C74F;" cx="95.292" cy="84.34" r="24.053"/>
<path style="opacity:0.2;enable-background:new    ;" d="M125.75,42.794c-24.222,21.891-44.766,52.027-59.36,84.194
	c8.242,5.597,18.191,8.87,28.905,8.87c28.452,0,51.518-23.065,51.518-51.518C146.812,67.284,138.518,52.171,125.75,42.794z"/>
<path style="fill:#40BAB3;" d="M381.423,225.613c0-89.134-74.309-217.543-161.872-217.543S57.679,136.478,57.679,225.613
	s72.473,161.393,161.872,161.393S381.423,314.748,381.423,225.613z"/>
<path style="fill:#FFFFFF;" d="M60.406,255.213c13.944,74.996,79.888,131.793,159.146,131.793s145.201-56.797,159.146-131.793
	L60.406,255.213L60.406,255.213z"/>
<path style="fill:#0081C6;" d="M89.061,321.11c29.461,39.959,76.934,65.897,130.49,65.897s101.028-25.938,130.49-65.897H89.061z"/>
<path style="opacity:0.2;enable-background:new    ;" d="M236.716,369.841c-89.399,0-161.872-72.258-161.872-161.393
	c0-53.662,26.94-121.547,67.483-167.089C92.396,85.436,57.679,164.692,57.679,225.613c0,89.135,72.473,161.393,161.872,161.393
	c49.153,0,93.183-21.847,122.869-56.329C314.061,355.081,277.118,369.841,236.716,369.841z"/>
<path style="fill:#A27B5A;" d="M475.22,503.931H36.778c-14.604,0-26.442-11.839-26.442-26.442V340.41
	c0-14.604,11.839-26.442,26.442-26.442h438.444c14.604,0,26.443,11.839,26.443,26.442v137.078
	C501.664,492.091,489.825,503.931,475.22,503.931z"/>
<g>
	<path style="opacity:0.1;fill:#FFFFFF;enable-background:new    ;" d="M475.22,313.967h-46.566
		c-7.539,10.798-11.975,23.923-11.975,38.09c0,36.799,29.832,66.63,66.63,66.63c6.369,0,12.521-0.912,18.354-2.581v-75.696
		C501.664,325.806,489.825,313.967,475.22,313.967z"/>
	<path style="fill:#FFFFFF;" d="M381.885,436.044l-166.041,44.491c-3.053,0.818-6.192-0.994-7.011-4.048l-25.442-94.952
		c-0.818-3.053,0.994-6.192,4.048-7.011l166.041-44.491c3.053-0.818,6.192,0.994,7.011,4.048l25.442,94.952
		C386.751,432.087,384.939,435.226,381.885,436.044z"/>
</g>
<path style="opacity:0.1;enable-background:new    ;" d="M215.845,480.535l83.02-22.245L270.46,352.28l-83.02,22.245
	c-3.053,0.818-4.865,3.957-4.048,7.011l25.442,94.952C209.653,479.541,212.791,481.353,215.845,480.535z"/>
<g>
	<path style="fill:#394049;" d="M228.378,459.723c-3.563,0-6.823-2.378-7.788-5.983c-1.153-4.305,1.401-8.73,5.706-9.882
		l39.652-10.625c4.307-1.158,8.73,1.401,9.883,5.706c1.153,4.305-1.401,8.73-5.706,9.883l-39.652,10.625
		C229.772,459.634,229.069,459.723,228.378,459.723z"/>
	<path style="fill:#394049;" d="M220.556,430.531c-3.563,0-6.823-2.378-7.788-5.983c-1.153-4.305,1.401-8.73,5.706-9.882
		l39.652-10.625c4.306-1.158,8.73,1.401,9.883,5.706c1.153,4.305-1.401,8.73-5.706,9.882l-39.651,10.625
		C221.95,430.442,221.248,430.531,220.556,430.531z"/>
	<path style="fill:#394049;" d="M212.735,401.34c-3.562,0-6.823-2.378-7.788-5.982c-1.153-4.305,1.401-8.73,5.706-9.883
		l39.651-10.625c4.307-1.158,8.73,1.401,9.883,5.706c1.153,4.305-1.401,8.73-5.706,9.882l-39.651,10.625
		C214.129,401.251,213.426,401.34,212.735,401.34z"/>
	<path style="fill:#394049;" d="M316.927,435.996c-3.562,0-6.823-2.378-7.788-5.983c-1.153-4.305,1.401-8.729,5.706-9.882
		l39.651-10.626c4.305-1.158,8.729,1.401,9.883,5.706c1.153,4.305-1.401,8.729-5.706,9.883l-39.652,10.626
		C318.321,435.907,317.619,435.996,316.927,435.996z"/>
	<path style="fill:#394049;" d="M309.105,406.805c-3.562,0-6.823-2.378-7.788-5.982c-1.153-4.305,1.401-8.73,5.706-9.883
		l39.652-10.625c4.306-1.159,8.73,1.401,9.883,5.706c1.153,4.305-1.401,8.73-5.706,9.882L311.2,406.527
		C310.499,406.715,309.796,406.805,309.105,406.805z"/>
	<path style="fill:#394049;" d="M301.283,377.614c-3.562,0-6.823-2.378-7.788-5.983c-1.153-4.305,1.401-8.73,5.706-9.882
		l39.651-10.625c4.306-1.159,8.73,1.401,9.883,5.706c1.153,4.305-1.401,8.73-5.706,9.883l-39.652,10.625
		C302.678,377.525,301.975,377.614,301.283,377.614z"/>
</g>
<g>
	<path style="fill:#F0B0B7;" d="M162.028,202.059h-27.025c-4.457,0-8.069-3.612-8.069-8.069c0-4.457,3.612-8.069,8.069-8.069h27.023
		c4.457,0,8.069,3.612,8.069,8.069C170.097,198.446,166.484,202.059,162.028,202.059z"/>
	<path style="fill:#F0B0B7;" d="M350.873,202.059h-27.023c-4.457,0-8.069-3.612-8.069-8.069c0-4.457,3.612-8.069,8.069-8.069h27.023
		c4.456,0,8.069,3.612,8.069,8.069C358.942,198.446,355.33,202.059,350.873,202.059z"/>
</g>
<path style="fill:#394049;" d="M236.768,349.067l-27.304,7.316l-33.159-123.753c-1.059-3.952,1.287-8.014,5.239-9.073l12.992-3.482
	c3.952-1.059,8.014,1.287,9.074,5.239L236.768,349.067z"/>
<path style="fill:#F1A21E;" d="M226.576,382.9l-17.112-26.517l27.304-7.316l-1.561,31.52
	C234.981,385.142,229.048,386.731,226.576,382.9z"/>
<path d="M220.87,374.059l5.706,8.841c2.472,3.831,8.405,2.242,8.631-2.313l0.521-10.508L220.87,374.059z"/>
<rect x="187.34" y="235.137" transform="matrix(-0.2589 -0.9659 0.9659 -0.2589 5.2301 502.5517)" style="fill:#5F666F;" width="16.138" height="28.264"/>
<path style="opacity:0.1;fill:#FFFFFF;enable-background:new    ;" d="M203.608,225.315c-1.059-3.952-5.121-6.297-9.074-5.239
	l-1.49,0.399c-3.556,4.485-5.685,10.154-5.685,16.323c0,14.527,11.777,26.304,26.304,26.304c0.024,0,0.046-0.001,0.07-0.001
	L203.608,225.315z"/>
<g>
	<path style="fill:#F3C74F;" d="M212.596,336.074c-0.111,0-0.221-0.001-0.33-0.002c-33.548-0.486-64.012-7.332-88.1-19.801
		c-28.557-14.783-48.533-37.593-57.77-65.968c-3.835-11.779,2.606-24.437,14.386-28.272c11.782-3.831,24.437,2.608,28.272,14.386
		c15.732,48.33,77.874,54.422,103.86,54.798c12.387,0.18,22.284,10.366,22.104,22.753
		C234.841,326.243,224.833,336.074,212.596,336.074z"/>
	<path style="fill:#F3C74F;" d="M410.058,360.387c-1.599,0-3.22-0.171-4.846-0.529c-12.099-2.664-19.746-14.631-17.083-26.73
		c2.442-11.089,0.152-22.097-7.004-33.652c-6.522-10.532-3.272-24.357,7.261-30.88c10.531-6.518,24.356-3.273,30.879,7.261
		c13.417,21.667,17.681,44.181,12.675,66.917C429.636,353.248,420.357,360.387,410.058,360.387z"/>
</g>
<path style="opacity:0.2;enable-background:new    ;" d="M230.334,385.053c-0.571-2.293-2.837-4.119-5.615-3.486l-9.842,2.242
	l-0.416,0.095l-20.511,4.674l-4.428,2.626c-25.562-8.706-46.062-23.805-60.923-44.94c-8.004-11.382-13.099-22.86-15.964-32.298
	H66.477c3.566,18.947,12.687,39.991,25.424,58.103c13.453,19.131,30.734,34.939,50.92,46.832l-59.068,35.031
	c-3.519,2.087-4.68,6.632-2.593,10.151l6.861,11.569c2.087,3.519,6.632,4.68,10.151,2.593l75.805-44.958
	c1.25,0.436,2.492,0.887,3.757,1.296c2.297,0.743,4.625,1.096,6.916,1.096c9.463,0,18.262-6.037,21.335-15.525
	c0.698-2.156,1.045-4.34,1.086-6.495l1.296-0.769l13.937-15.758l6.971-7.881C230.409,387.972,230.676,386.429,230.334,385.053z"/>
<path d="M475.22,305.897h-35.087c-2.4-11.61-7.056-23.065-14.005-34.287c-8.527-13.77-20.874-27.468-36.731-40.756
	c0.053-1.744,0.095-3.49,0.095-5.241c0-27.243-6.717-58.181-18.587-88.194c19.732-10.058,32.49-30.425,32.49-53.079
	c0-32.856-26.731-59.587-59.588-59.587c-13.982,0-27.481,4.97-38.121,13.819c-6.302-5.855-12.755-11.115-19.289-15.667
	C264.579,7.707,242.09,0,219.552,0s-45.029,7.707-66.845,22.905c-6.534,4.552-12.988,9.812-19.29,15.667
	c-10.641-8.849-24.139-13.819-38.121-13.819c-32.857,0-59.588,26.731-59.588,59.587c0,22.653,12.757,43.021,32.489,53.079
	c-11.87,30.013-18.586,60.952-18.586,88.194c0,28.233,6.988,55.703,20.274,80.284H36.778c-19.031,0-34.512,15.483-34.512,34.513
	v137.077c0,19.031,15.482,34.513,34.512,34.513h438.444c19.031,0,34.512-15.483,34.512-34.513V340.411
	C509.732,321.38,494.251,305.897,475.22,305.897z M387.614,250.8c10.433,9.722,18.748,19.542,24.794,29.308
	c12.272,19.818,16.193,40.32,11.655,60.933c-1.441,6.535-7.33,11.279-14.005,11.279c-1.038,0-2.085-0.115-3.109-0.339
	c-7.735-1.703-12.641-9.382-10.939-17.114c2.916-13.241,0.292-26.205-8.022-39.633c-0.019-0.03-0.039-0.062-0.059-0.093
	c-2.378-3.829-5.273-7.74-8.631-11.669C383.147,272.901,385.942,261.967,387.614,250.8z M374.318,303.808
	c0.433,0.702,0.839,1.397,1.229,2.088h-6.33c0.982-1.817,1.93-3.651,2.843-5.499c0.789,1.121,1.526,2.23,2.205,3.327
	C374.282,303.752,374.3,303.78,374.318,303.808z M343.807,40.892c23.958,0,43.449,19.49,43.449,43.448
	c0,16.142-8.88,30.689-22.707,38.189c-1.573-3.436-3.216-6.847-4.919-10.231c9.837-5.573,16.298-16.127,16.298-27.958
	c0-17.712-14.411-32.122-32.121-32.122c-6.994,0-13.692,2.293-19.166,6.365c-2.462-2.936-4.966-5.774-7.506-8.52
	C324.711,44.178,334.099,40.892,343.807,40.892z M351.992,98.079c-3.769-6.585-7.771-13.013-12.005-19.213
	c-1.76-2.578-3.558-5.1-5.382-7.58c2.662-1.875,5.863-2.929,9.201-2.929c8.813,0,15.983,7.17,15.983,15.984
	C359.79,90.107,356.712,95.265,351.992,98.079z M51.846,84.34c0-23.958,19.491-43.448,43.449-43.448
	c9.708,0,19.096,3.286,26.672,9.171c-2.539,2.746-5.044,5.584-7.506,8.52c-5.474-4.071-12.172-6.365-19.166-6.365
	c-17.712,0-32.122,14.411-32.122,32.122c0,11.832,6.462,22.384,16.298,27.958c-1.703,3.384-3.346,6.794-4.919,10.231
	C60.726,115.029,51.846,100.482,51.846,84.34z M104.497,71.286c-1.823,2.48-3.62,5.002-5.381,7.58
	c-4.234,6.202-8.236,12.629-12.005,19.213c-4.72-2.815-7.799-7.974-7.799-13.74c0-8.813,7.17-15.984,15.984-15.984
	C98.635,68.356,101.835,69.411,104.497,71.286z M65.794,222.145c0.931-42.076,18.622-93.124,46.651-134.179
	c31.162-45.647,70.202-71.827,107.107-71.827c36.905,0,75.944,26.18,107.107,71.827c28.803,42.189,46.694,94.932,46.694,137.648
	c0,28.518-7.868,56.175-22.765,80.284H242.096c-1.314-5.035-3.903-9.673-7.629-13.508c-1.756-1.807-3.698-3.369-5.783-4.667
	l-17.281-64.494c-1.069-3.995-3.63-7.332-7.212-9.4c-3.582-2.068-7.753-2.616-11.745-1.546l-12.992,3.481
	c-3.994,1.069-7.331,3.631-9.398,7.212s-2.617,7.752-1.546,11.745l12.106,45.183c-25.444-4.922-54.453-16.992-63.889-45.983
	c-5.204-15.988-22.452-24.765-38.442-19.562C73.469,215.924,69.214,218.601,65.794,222.145z M74.07,247.804
	c-1.188-3.648-0.883-7.54,0.856-10.959c1.74-3.419,4.706-5.955,8.352-7.143c1.472-0.478,2.965-0.705,4.435-0.705
	c6.053,0,11.697,3.858,13.668,9.916c17.346,53.281,83.696,59.967,111.417,60.368c3.835,0.056,7.419,1.602,10.094,4.353
	c2.673,2.752,4.114,6.379,4.059,10.215c-0.113,7.805-6.552,14.154-14.355,14.154l-0.213-0.001
	c-32.305-0.469-61.528-7.004-84.508-18.898C101.241,295.317,82.636,274.119,74.07,247.804z M94.291,305.897h-5.777
	c-2.574-4.165-4.931-8.437-7.079-12.8C85.354,297.634,89.643,301.907,94.291,305.897z M184.27,231.181l11.714-3.139l14.754,55.057
	c-3.701-0.098-8.026-0.317-12.758-0.752L184.27,231.181z M228.159,359.727l-0.494,9.98l-5.418-8.395L228.159,359.727z
	 M215.169,346.501l-0.65-2.427c4.177-0.265,8.135-1.386,11.703-3.188l0.663,2.475L215.169,346.501z M212.606,376.135l7.189,11.14
	c2.396,3.713,6.444,5.848,10.701,5.848c1.102,0,2.22-0.143,3.326-0.439c5.374-1.441,9.17-6.141,9.443-11.696l0.656-13.242
	l109.381-29.309l24.229,90.421l-161.509,43.277l-24.229-90.421L212.606,376.135z M244.825,349.468
	c0.04-0.818-0.041-1.654-0.264-2.486l-5.091-19.004c1.008-1.874,1.826-3.862,2.426-5.941h110.439
	c-0.315,0.061-0.632,0.12-0.945,0.204l-106.631,28.572l0.067-1.345H244.825z M493.593,477.487c0,10.132-8.243,18.374-18.373,18.374
	H36.778c-10.131,0-18.373-8.242-18.373-18.374V340.411c0-10.132,8.242-18.374,18.373-18.374h81.046
	c0.87,0.473,1.747,0.941,2.634,1.4c21.64,11.201,48.096,18.049,77.207,20.082l4.007,14.954c0.219,0.818,0.568,1.586,1.019,2.284
	l-0.004,0.003l0.731,1.132l-18.062,4.84c-7.345,1.968-11.721,9.545-9.753,16.893l25.442,94.954
	c1.649,6.154,7.238,10.223,13.328,10.223c1.178,0,2.375-0.153,3.564-0.472l166.042-44.491c7.345-1.969,11.72-9.548,9.751-16.894
	l-25.441-94.95c-0.953-3.56-3.236-6.534-6.427-8.377c-1.337-0.772-2.769-1.292-4.241-1.583H380.9
	c0.254,3.122,0.041,6.224-0.649,9.357c-3.616,16.425,6.804,32.729,23.23,36.346c2.164,0.474,4.376,0.717,6.578,0.717
	c14.19,0,26.708-10.069,29.765-23.946c1.657-7.528,2.375-15.026,2.187-22.475h33.211c10.131,0,18.373,8.242,18.373,18.374v137.079
	H493.593z M333.844,166.234c0.911,0.332,1.842,0.488,2.759,0.488c3.297,0,6.391-2.036,7.584-5.313l1.515-4.164
	c1.523-4.189-0.636-8.818-4.823-10.342c-4.188-1.528-8.818,0.636-10.342,4.823l-1.515,4.164
	C327.498,160.079,329.656,164.71,333.844,166.234z M145,166.234c0.911,0.332,1.842,0.488,2.758,0.488
	c3.297,0,6.392-2.036,7.584-5.313l1.515-4.164c1.523-4.189-0.636-8.818-4.823-10.342c-4.19-1.528-8.818,0.636-10.342,4.823
	l-1.515,4.164C138.652,160.079,140.811,164.71,145,166.234z M227.083,189.617c6.076,0,11.632-2.277,15.855-6.023
	c4.225,3.746,9.779,6.023,15.856,6.023c13.193,0,23.925-10.733,23.925-23.925c0-4.457-3.613-8.069-8.069-8.069
	c-4.457,0-8.069,3.612-8.069,8.069c0,4.293-3.493,7.786-7.786,7.786c-4.293,0-7.786-3.493-7.786-7.786
	c0-4.457-3.612-8.069-8.069-8.069s-8.069,3.612-8.069,8.069c0,4.293-3.492,7.786-7.785,7.786c-4.293,0-7.786-3.493-7.786-7.786
	c0-4.457-3.612-8.069-8.069-8.069s-8.069,3.612-8.069,8.069C203.158,178.885,213.891,189.617,227.083,189.617z"/>
<g>
</g>
<g>
</g>
<g>
</g>
<g>
</g>
<g>
</g>
<g>
</g>
<g>
</g>
<g>
</g>
<g>
</g>
<g>
</g>
<g>
</g>
<g>
</g>
<g>
</g>
<g>
</g>
<g>
</g>
</svg>
